<?xml version="1.0" encoding="UTF-8"?>
<svg id="Layer_1" xmlns="http://www.w3.org/2000/svg" version="1.1" viewBox="0 0 143.04 43.46">
  <!-- Generator: Adobe Illustrator 29.8.3, SVG Export Plug-In . SVG Version: 2.1.1 Build 3)  -->
  <defs>
    <style>
      .st0 {
        fill: #fdd907;
      }

      .st1 {
        fill: #231f20;
      }
    </style>
  </defs>
  <g>
    <g>
      <polygon class="st0" points="10.59 6.6 18.13 .47 23.76 4.77 28.52 1.15 36.19 7.16 8.24 29.01 .57 22.88 16.04 10.87 10.59 6.6"/>
      <path d="M24.32,16.92l3.86-3.03,3.2-2.48.67-.52h0l4.76-3.73L28.53.67l-4.73,3.7L18.21,0l-8.29,6.48,5.58,4.37h-.02v.02l-7.19,5.63h0L0,22.97l8.29,6.48,7.75-6.06h0l4.42-3.45,3.32,2.6,8.29-6.48v-3.77c0-.19-.15-.33-.34-.33s-.33.15-.34.33v3.44l-.42.33-6.86,5.36v-4.34l.21-.17h0ZM11.02,6.48L18.21.86l5.01,3.91-7.18,5.65-.13-.1-4.9-3.83h.01ZM23.43,21.43l-2.43-1.9,2.43-1.9v3.81h0ZM23.76,16.51l-6.35-4.96c-.15-.11-.36-.09-.47.06-.11.15-.09.36.06.47l6.22,4.86-14.93,11.67-7.19-5.63,7.27-5.69h0l.33-.26,7.19-5.63.6-.47h0l6.93-5.46v4.33l-3.28,2.56c-.15.11-.17.33-.06.48s.33.17.47.06l3.13-2.44h.1l3.21,2.51c.06.05.14.07.21.07.1,0,.2-.04.27-.13.11-.15.09-.36-.06-.47l-3.32-2.6v-4.35l5.86,4.62c.06.05.13.07.21.07.1,0,.2-.05.26-.13.11-.15.09-.36-.06-.47l-6.04-4.76,4.2-3.28,7.19,5.63-11.97,9.35h.02Z"/>
    </g>
    <g>
      <g>
        <path class="st1" d="M52.17,5.66h.16l2.13-5.21h6.8l-5.73,11.05v4.61h-6.82v-4.63L43.02.45h7.23l1.92,5.21Z"/>
        <path class="st1" d="M74.99.45v4.5h-5.88v1.23h5.82v3.98h-5.82v1.32h6.33v4.63h-13.15V.45h12.71-.01Z"/>
        <path class="st1" d="M84,.45v9.48h4.54v6.17h-11.36V.45h6.82Z"/>
        <path class="st1" d="M97,.45v9.48h4.54v6.17h-11.36V.45h6.82Z"/>
        <path class="st1" d="M111.59,0c5.73,0,8.9,3.71,8.9,8.21s-3.18,8.34-8.9,8.34-8.9-3.71-8.9-8.21S105.87,0,111.59,0ZM111.59,10.67c1.21,0,1.86-.98,1.86-2.44s-.65-2.44-1.86-2.44-1.9,1.01-1.9,2.46.65,2.42,1.9,2.42Z"/>
        <path class="st1" d="M128.23,7.36l3.06-6.2h.96l3.09,6.2,1.1-6.91h6.6l-3,15.66h-5.59l-2.68-5.68-2.64,5.68h-5.62l-2.97-15.66h6.58l1.12,6.91h-.01Z"/>
      </g>
      <g>
        <path class="st1" d="M55.35,27.39c0-.92-.57-1.29-1.5-1.52l-.98-.24c-1.21-.3-1.88-.92-1.88-2,0-1.3.96-2.09,2.45-2.09,1.02,0,1.76.34,2.42.87l-.24.7c-.61-.63-1.36-1-2.18-1-1.07,0-1.75.53-1.75,1.52,0,.63.28,1.08,1.37,1.36l1,.25c1.23.31,2,.91,2,2.09,0,1.44-1.16,2.24-2.66,2.24-1.18,0-2.06-.51-2.61-1.06l.23-.75c.6.71,1.38,1.23,2.38,1.23,1.13,0,1.96-.6,1.96-1.61h0Z"/>
        <path class="st1" d="M58.69,21.66h4.46v.57h-3.78v2.95h2.84v.57h-2.84v3.12h3.8v.57h-4.48v-7.8.02Z"/>
        <path class="st1" d="M65.79,21.66h.68v7.22h3.51v.57h-4.19v-7.8h0Z"/>
        <path class="st1" d="M72.43,21.66h4.17v.57h-3.49v3.07h2.91v.57h-2.91v3.58h-.68v-7.8h0Z"/>
        <path class="st1" d="M86.73,27.39c0-.92-.57-1.29-1.5-1.52l-.98-.24c-1.21-.3-1.88-.92-1.88-2,0-1.3.96-2.09,2.45-2.09,1.02,0,1.76.34,2.42.87l-.24.7c-.61-.63-1.36-1-2.18-1-1.07,0-1.75.53-1.75,1.52,0,.63.28,1.08,1.37,1.36l1,.25c1.23.31,2,.91,2,2.09,0,1.44-1.16,2.24-2.66,2.24-1.18,0-2.06-.51-2.61-1.06l.23-.75c.6.71,1.38,1.23,2.38,1.23,1.13,0,1.96-.6,1.96-1.61h0Z"/>
        <path class="st1" d="M94.35,22.23h-2.19v7.22h-.68v-7.22h-2.12v-.57h5v.57h0Z"/>
        <path class="st1" d="M96.02,25.61c0-2.27,1.09-4.07,3.38-4.07s3.31,1.79,3.31,4.07c0,2.4-1.24,3.96-3.31,3.96s-3.38-1.56-3.38-3.96ZM99.36,28.98c1.34,0,2.64-.95,2.64-3.38s-1.3-3.49-2.64-3.49c-1.27,0-2.64.95-2.64,3.49s1.37,3.38,2.64,3.38Z"/>
        <path class="st1" d="M109.12,25.88c.41.18.64.56.92,1.25l.64,1.61c.07.18.16.25.4.25v.46h-.28c-.52,0-.67-.26-.77-.52l-.71-1.72c-.33-.82-.6-1.13-1.3-1.13h-1.93v3.37h-.68v-7.8h2.86c1.48,0,2.16,1.05,2.16,2.22s-.77,1.81-1.32,1.98v.03h0ZM106.1,25.53h2.11c.77,0,1.53-.39,1.53-1.64,0-1.07-.62-1.65-1.53-1.65h-2.11v3.3h0Z"/>
        <path class="st1" d="M115.53,21.66h.71l2.8,7.8h-.8l-.68-2.03h-3.38l-.65,2.03h-.71l2.71-7.8ZM114.39,26.85h2.97l-1.52-4.43-1.46,4.43h0Z"/>
        <path class="st1" d="M121.44,25.61c0,2.24,1.16,3.39,2.91,3.39.87,0,1.64-.32,2.16-.78v-2.11h-2.4v-.57h3.03v2.99c-.68.6-1.58,1.06-2.8,1.06-2.1,0-3.58-1.35-3.58-3.96,0-2.43,1.44-4.07,3.49-4.07,1.24,0,2.23.6,2.77,1.16l-.29.69c-.68-.85-1.48-1.27-2.46-1.27-1.61,0-2.83,1.35-2.83,3.49v-.02Z"/>
        <path class="st1" d="M129.95,21.66h4.46v.57h-3.78v2.95h2.84v.57h-2.84v3.12h3.8v.57h-4.48v-7.8.02Z"/>
      </g>
    </g>
  </g>
  <g>
    <path d="M44.99,43.19h-1.39v-5.97h1.39v5.97Z"/>
    <path d="M51.36,37.22v5.97h-.72c-.11,0-.2-.02-.27-.05-.07-.03-.14-.09-.21-.18l-2.81-3.56c.01.11.02.21.02.31,0,.1,0,.19,0,.28v3.2h-1.22v-5.97h.73c.06,0,.11,0,.15,0,.04,0,.08.02.11.03s.06.04.09.06c.03.03.06.06.1.11l2.84,3.58c-.01-.12-.02-.23-.03-.33,0-.11,0-.21,0-.31v-3.16h1.22Z"/>
    <path d="M57.86,37.22l-2.39,5.97h-1.25l-2.39-5.97h1.11c.12,0,.22.03.29.08.07.06.13.13.17.21l1.16,3.2c.05.14.11.29.16.46.05.17.1.34.15.52.04-.18.08-.35.13-.52s.1-.32.15-.46l1.15-3.2c.03-.08.08-.15.16-.21.08-.06.17-.09.29-.09h1.12Z"/>
    <path d="M59.73,38.28v1.39h1.88v1.02h-1.88v1.42h2.45v1.07h-3.84v-5.97h3.84v1.07h-2.45Z"/>
    <path d="M68.24,37.22v5.97h-.72c-.11,0-.2-.02-.27-.05-.07-.03-.14-.09-.21-.18l-2.81-3.56c.01.11.02.21.02.31,0,.1,0,.19,0,.28v3.2h-1.22v-5.97h.73c.06,0,.11,0,.15,0,.04,0,.08.02.11.03s.06.04.09.06c.03.03.06.06.1.11l2.84,3.58c-.01-.12-.02-.23-.03-.33,0-.11,0-.21,0-.31v-3.16h1.22Z"/>
    <path d="M73.69,38.32h-1.68v4.87h-1.38v-4.87h-1.68v-1.1h4.74v1.1Z"/>
    <path d="M79.16,43.19h-1.07c-.12,0-.22-.03-.29-.08-.07-.06-.13-.13-.17-.21l-.35-1.04h-2.27l-.35,1.04c-.03.08-.08.15-.16.21s-.17.09-.29.09h-1.08l2.31-5.97h1.42l2.31,5.97ZM76.96,40.91l-.55-1.63c-.04-.1-.08-.23-.13-.37-.05-.14-.09-.29-.14-.46-.04.17-.08.32-.13.46-.05.14-.09.26-.13.37l-.55,1.63h1.63ZM78.02,35.54l-1.32,1.17s-.06.05-.09.07c-.03.02-.06.03-.09.04-.03,0-.07.01-.1.02s-.08,0-.12,0h-.93l.77-1.11s.06-.08.1-.1c.03-.03.07-.04.1-.06.04-.01.08-.02.13-.02.05,0,.1,0,.17,0h1.4Z"/>
    <path d="M84.51,43.19h-1.25c-.23,0-.4-.09-.5-.26l-.99-1.73c-.05-.07-.1-.13-.16-.16-.06-.03-.14-.05-.25-.05h-.35v2.21h-1.38v-5.97h1.94c.43,0,.8.04,1.1.13.3.09.55.21.75.37s.33.35.42.56c.09.22.13.45.13.7,0,.19-.03.38-.08.55-.05.17-.13.33-.23.48-.1.15-.23.28-.37.39-.15.11-.32.21-.51.28.09.05.17.1.25.17.08.07.15.15.21.25l1.27,2.08ZM81.57,40.03c.19,0,.35-.02.48-.07.13-.05.24-.11.33-.2.08-.08.15-.18.18-.3s.06-.24.06-.37c0-.26-.09-.47-.26-.61-.17-.15-.43-.22-.79-.22h-.56v1.77h.56Z"/>
    <path d="M86.41,43.19h-1.39v-5.97h1.39v5.97Z"/>
    <path d="M93.42,40.2c0,.43-.07.83-.22,1.2-.15.37-.36.69-.63.97-.27.27-.6.49-.98.65s-.8.23-1.27.23-.89-.08-1.27-.23c-.38-.16-.71-.37-.98-.65-.27-.27-.48-.6-.63-.97-.15-.37-.22-.77-.22-1.2s.07-.83.22-1.2c.15-.37.36-.69.63-.97.27-.27.6-.49.98-.64.38-.16.81-.23,1.27-.23s.89.08,1.27.24.71.37.98.65c.27.27.48.6.63.97.15.37.22.77.22,1.2ZM92,40.2c0-.29-.04-.56-.12-.8s-.19-.44-.33-.6c-.14-.16-.32-.29-.53-.38-.21-.09-.44-.13-.71-.13s-.51.04-.71.13c-.21.09-.39.21-.53.38-.14.16-.25.36-.33.6s-.11.5-.11.8.04.56.11.8.19.44.33.6c.14.16.32.29.53.37.21.09.45.13.71.13s.5-.04.71-.13c.21-.09.38-.21.53-.37.14-.16.25-.36.33-.6s.12-.5.12-.8Z"/>
    <path d="M97.52,38.28v1.39h1.88v1.02h-1.88v1.42h2.45v1.07h-3.84v-5.97h3.84v1.07h-2.45Z"/>
    <path d="M106.74,41.64s.07,0,.1.02c.03.01.06.03.09.06l.55.58c-.24.31-.54.55-.9.71-.36.16-.79.24-1.28.24-.45,0-.86-.08-1.22-.23s-.66-.37-.91-.64c-.25-.27-.44-.59-.58-.97-.13-.37-.2-.78-.2-1.21s.07-.85.22-1.23c.14-.37.35-.69.61-.96.26-.27.58-.48.94-.63s.77-.23,1.21-.23c.22,0,.44.02.63.06.2.04.38.09.56.16.17.07.33.15.47.25.15.1.27.2.39.32l-.47.63s-.07.07-.11.1-.1.05-.17.05c-.05,0-.1-.01-.14-.03-.04-.02-.09-.05-.14-.08-.05-.03-.1-.07-.16-.1-.06-.04-.13-.07-.21-.1-.08-.03-.17-.06-.28-.08-.11-.02-.23-.03-.38-.03-.23,0-.44.04-.63.13-.19.08-.35.21-.49.37-.14.16-.25.36-.32.6-.08.24-.11.51-.11.81s.04.58.12.82c.08.24.2.44.34.6.14.16.31.29.5.37s.4.13.61.13c.13,0,.24,0,.34-.02.1-.01.2-.03.29-.06.09-.03.17-.07.25-.11.08-.05.16-.11.24-.18.03-.03.07-.05.11-.07s.08-.03.12-.03Z"/>
    <path d="M113.81,40.2c0,.43-.07.83-.22,1.2-.15.37-.36.69-.63.97-.27.27-.6.49-.98.65s-.8.23-1.27.23-.89-.08-1.27-.23c-.38-.16-.71-.37-.98-.65-.27-.27-.48-.6-.63-.97-.15-.37-.22-.77-.22-1.2s.07-.83.22-1.2c.15-.37.36-.69.63-.97.27-.27.6-.49.98-.64.38-.16.81-.23,1.27-.23s.89.08,1.27.24.71.37.98.65c.27.27.48.6.63.97.15.37.22.77.22,1.2ZM112.39,40.2c0-.29-.04-.56-.12-.8s-.19-.44-.33-.6c-.14-.16-.32-.29-.53-.38-.21-.09-.44-.13-.71-.13s-.51.04-.71.13c-.21.09-.39.21-.53.38-.14.16-.25.36-.33.6s-.11.5-.11.8.04.56.11.8.19.44.33.6c.14.16.32.29.53.37.21.09.45.13.71.13s.5-.04.71-.13c.21-.09.38-.21.53-.37.14-.16.25-.36.33-.6s.12-.5.12-.8Z"/>
    <path d="M121.33,37.22v5.97h-1.22v-3.43c0-.08,0-.17,0-.26,0-.09.01-.19.02-.28l-1.59,3.07c-.05.1-.12.17-.2.22-.08.05-.18.07-.29.07h-.19c-.11,0-.2-.02-.29-.07-.08-.05-.15-.12-.2-.22l-1.59-3.08c0,.1.01.19.02.29,0,.09,0,.18,0,.26v3.43h-1.22v-5.97h1.06c.06,0,.11,0,.16,0,.04,0,.09.01.12.03s.07.03.1.06.06.07.08.12l1.54,3.03c.05.1.11.21.16.32.05.11.1.23.15.34.05-.12.09-.24.15-.35.05-.11.1-.22.16-.33l1.53-3.02c.03-.05.06-.09.08-.12s.06-.05.1-.06.08-.02.12-.03c.04,0,.1,0,.16,0h1.06Z"/>
    <path d="M124.59,37.22c.42,0,.78.05,1.08.15s.55.24.75.41c.19.17.34.38.43.62.09.24.14.49.14.77,0,.3-.05.57-.14.82-.1.25-.24.46-.44.64-.2.18-.45.32-.75.42-.3.1-.66.15-1.07.15h-.72v2h-1.38v-5.97h2.11ZM124.59,40.15c.36,0,.62-.09.78-.26.16-.17.24-.41.24-.72,0-.14-.02-.26-.06-.37-.04-.11-.1-.21-.19-.29-.08-.08-.19-.14-.32-.19-.13-.04-.28-.07-.45-.07h-.72v1.89h.72Z"/>
    <path d="M132.58,43.19h-1.25c-.23,0-.4-.09-.5-.26l-.99-1.73c-.05-.07-.1-.13-.16-.16-.06-.03-.14-.05-.25-.05h-.35v2.21h-1.38v-5.97h1.94c.43,0,.8.04,1.1.13.3.09.55.21.75.37s.33.35.42.56c.09.22.13.45.13.7,0,.19-.03.38-.08.55-.05.17-.13.33-.23.48-.1.15-.23.28-.37.39-.15.11-.32.21-.51.28.09.05.17.1.25.17.08.07.15.15.21.25l1.27,2.08ZM129.64,40.03c.19,0,.35-.02.48-.07.13-.05.24-.11.33-.2.08-.08.15-.18.18-.3s.06-.24.06-.37c0-.26-.09-.47-.26-.61-.17-.15-.43-.22-.79-.22h-.56v1.77h.56Z"/>
    <path d="M138.44,43.19h-1.07c-.12,0-.22-.03-.29-.08-.07-.06-.13-.13-.17-.21l-.35-1.04h-2.27l-.35,1.04c-.03.08-.08.15-.16.21s-.17.09-.29.09h-1.08l2.31-5.97h1.42l2.31,5.97ZM136.24,40.91l-.55-1.63c-.04-.1-.08-.23-.13-.37-.05-.14-.09-.29-.14-.46-.04.17-.08.32-.13.46-.05.14-.09.26-.13.37l-.55,1.63h1.63Z"/>
    <path d="M142.21,38.43c-.04.07-.08.11-.13.15-.04.03-.1.05-.17.05-.06,0-.13-.02-.2-.06-.07-.04-.15-.08-.25-.13-.09-.05-.2-.09-.31-.13-.12-.04-.25-.06-.4-.06-.26,0-.45.06-.58.17s-.19.26-.19.45c0,.12.04.22.11.3.08.08.18.15.3.21.12.06.27.11.43.16s.32.1.49.16c.17.06.33.13.49.21.16.08.3.18.43.3.12.12.22.27.3.45.08.18.12.39.12.64,0,.28-.05.53-.14.77s-.23.45-.42.63-.41.32-.67.42-.57.15-.91.15c-.19,0-.38-.02-.57-.06-.19-.04-.38-.09-.56-.16-.18-.07-.35-.15-.51-.25s-.3-.2-.41-.32l.41-.65s.08-.08.13-.12c.05-.03.11-.05.17-.05.08,0,.17.03.25.08s.18.11.28.17c.1.06.23.12.36.17s.3.08.48.08c.25,0,.45-.06.59-.17.14-.11.21-.29.21-.53,0-.14-.04-.25-.12-.34-.08-.09-.18-.16-.3-.22-.12-.06-.27-.11-.42-.15-.16-.04-.32-.09-.49-.15-.17-.05-.33-.12-.49-.2s-.3-.18-.42-.31-.22-.29-.3-.47c-.08-.19-.12-.42-.12-.7,0-.22.05-.44.14-.66s.22-.4.4-.57c.17-.17.39-.3.64-.4s.54-.15.87-.15c.18,0,.36.01.53.04.17.03.34.07.49.13.16.06.3.12.44.2.14.08.26.17.36.26l-.34.64Z"/>
  </g>
</svg>