<?xml version="1.0" encoding="UTF-8"?>
<svg id="Layer_1" xmlns="http://www.w3.org/2000/svg" version="1.1" viewBox="0 0 31.88 32">
  <!-- Generator: Adobe Illustrator 29.8.4, SVG Export Plug-In . SVG Version: 2.1.1 Build 6)  -->
  <defs>
    <style>
      .st0 {
        fill: #010101;
      }

      .st1 {
        fill: #feda07;
      }
    </style>
  </defs>
  <polygon class="st1" points="9.35 9.16 15.7 3.99 20.45 7.62 24.46 4.57 30.91 9.63 7.38 28.03 .92 22.86 13.95 12.75 9.35 9.16"/>
  <path class="st0" d="M20.92,17.84l3.25-2.55,2.7-2.09.56-.44h0s4.01-3.14,4.01-3.14l-6.98-5.46-3.99,3.12-4.7-3.68-6.98,5.46,4.7,3.68h-.01s-6.06,4.75-6.06,4.75h0S.44,22.94.44,22.94l6.98,5.46,6.52-5.1h0l3.72-2.91,2.79,2.19,6.98-5.46v-3.17c0-.16-.13-.28-.29-.28s-.28.12-.28.28v2.89l-.36.28-5.77,4.52v-3.65l.18-.14h0ZM9.71,9.06l6.06-4.74,4.21,3.3-6.04,4.75-.11-.08s-4.13-3.23-4.13-3.23ZM20.17,21.64l-2.05-1.6,2.05-1.6v3.21ZM20.44,17.5l-5.34-4.18c-.12-.1-.3-.07-.4.05-.1.12-.07.3.05.4l5.23,4.09-12.57,9.82-6.06-4.74,6.12-4.79h0l.28-.22,6.06-4.74.5-.4h0l5.84-4.59v3.65l-2.76,2.16c-.12.1-.14.28-.05.4.1.12.28.14.4.05l2.63-2.06s.04,0,.06,0h.03l2.7,2.11c.05.04.11.06.17.06.08,0,.17-.04.23-.11.1-.12.07-.3-.05-.4l-2.8-2.19v-3.66l4.93,3.89c.05.04.11.06.17.06.08,0,.17-.04.22-.11.1-.12.07-.3-.05-.4l-5.08-4.01,3.53-2.76,6.06,4.74-10.07,7.87h0Z"/>
</svg>